<svg xmlns="http://www.w3.org/2000/svg" version="1.1" xmlns:xlink="http://www.w3.org/1999/xlink" xmlns:svgjs="http://svgjs.com/svgjs" width="1440" height="560" preserveAspectRatio="none" viewBox="0 0 1440 560"><g mask="url(&quot;#SvgjsMask1063&quot;)" fill="none"><rect width="1440" height="560" x="0" y="0" fill="url(#SvgjsLinearGradient1064)"></rect><path d="M-51.73 -22.94 a28.79 28.79 0 1 0 57.58 0 a28.79 28.79 0 1 0 -57.58 0z" fill="rgba(28, 83, 142, 0.4)" class="triangle-float1"></path><path d="M-52.81 -21.86 a30.95 30.95 0 1 0 61.9 0 a30.95 30.95 0 1 0 -61.9 0z" fill="rgba(28, 83, 142, 0.4)" class="triangle-float2"></path><path d="M143.70464460668475 24.078119956270903L-46.085595729076914-6.167140571701502 11.373788349635447 151.70121972033107z" fill="rgba(28, 83, 142, 0.4)" class="triangle-float2"></path><path d="M1201.35 51.99 a178.64 178.64 0 1 0 357.28 0 a178.64 178.64 0 1 0 -357.28 0z" fill="rgba(28, 83, 142, 0.4)" class="triangle-float2"></path><path d="M1236.8 16.53 a107.73 107.73 0 1 0 215.46 0 a107.73 107.73 0 1 0 -215.46 0z" fill="rgba(28, 83, 142, 0.4)" class="triangle-float1"></path><path d="M1202.41 50.92 a176.51 176.51 0 1 0 353.02 0 a176.51 176.51 0 1 0 -353.02 0z" fill="rgba(28, 83, 142, 0.4)" class="triangle-float3"></path><path d="M-81.52 454.85 a88.37 88.37 0 1 0 176.74 0 a88.37 88.37 0 1 0 -176.74 0z" fill="rgba(28, 83, 142, 0.4)" class="triangle-float1"></path><path d="M44.62552794885285 596.6376408198568L157.7372184607744 441.26435939526175-9.0105350149677 420.79030970319695z" fill="rgba(28, 83, 142, 0.4)" class="triangle-float2"></path><path d="M-98.25 471.59 a121.84 121.84 0 1 0 243.68 0 a121.84 121.84 0 1 0 -243.68 0z" fill="rgba(28, 83, 142, 0.4)" class="triangle-float3"></path><path d="M1249.06 452.27 a83.21 83.21 0 1 0 166.42 0 a83.21 83.21 0 1 0 -166.42 0z" fill="rgba(28, 83, 142, 0.4)" class="triangle-float1"></path><path d="M1361.0796099257916 374.0120084735965L1264.7187686188158 511.6295519141471 1498.6971533663423 470.3728497805722z" fill="rgba(28, 83, 142, 0.4)" class="triangle-float2"></path><path d="M1197.96 503.37 a185.41 185.41 0 1 0 370.82 0 a185.41 185.41 0 1 0 -370.82 0z" fill="rgba(28, 83, 142, 0.4)" class="triangle-float3"></path></g><defs><mask id="SvgjsMask1063"><rect width="1440" height="560" fill="#ffffff"></rect></mask><linearGradient x1="15.28%" y1="-39.29%" x2="84.72%" y2="139.29%" gradientUnits="userSpaceOnUse" id="SvgjsLinearGradient1064"><stop stop-color="#0e2a47" offset="0"></stop><stop stop-color="rgba(6, 23, 45, 1)" offset="1"></stop></linearGradient><style>
            @keyframes float1 {
                0%{transform: translate(0, 0)}
                50%{transform: translate(-10px, 0)}
                100%{transform: translate(0, 0)}
            }

            .triangle-float1 {
                animation: float1 5s infinite;
            }

            @keyframes float2 {
                0%{transform: translate(0, 0)}
                50%{transform: translate(-5px, -5px)}
                100%{transform: translate(0, 0)}
            }

            .triangle-float2 {
                animation: float2 4s infinite;
            }

            @keyframes float3 {
                0%{transform: translate(0, 0)}
                50%{transform: translate(0, -10px)}
                100%{transform: translate(0, 0)}
            }

            .triangle-float3 {
                animation: float3 6s infinite;
            }
        </style></defs></svg>